<?xml version="1.0" standalone="no"?>
<!DOCTYPE svg PUBLIC "-//W3C//DTD SVG 20010904//EN"
 "http://www.w3.org/TR/2001/REC-SVG-20010904/DTD/svg10.dtd">
<svg version="1.0" xmlns="http://www.w3.org/2000/svg"
 width="714.000000pt" height="714.000000pt" viewBox="0 0 714.000000 714.000000"
 preserveAspectRatio="xMidYMid meet">
<metadata>
Created by potrace 1.11, written by Peter Selinger 2001-2013
</metadata>
<g transform="translate(0.000000,714.000000) scale(0.100000,-0.100000)"
fill="#000000" stroke="none">
<path d="M3469 7103 c-22 -5 -40 -43 -44 -89 -4 -65 -50 -135 -102 -155 -85
-32 -171 20 -199 121 -18 61 -35 80 -74 80 -46 0 -61 -20 -66 -90 -9 -110 -69
-181 -155 -182 -52 -1 -103 39 -144 113 -38 67 -72 83 -113 52 -26 -19 -27
-24 -27 -105 0 -77 -2 -88 -28 -122 -46 -60 -114 -77 -179 -45 -36 18 -46 29
-91 98 -30 46 -56 54 -97 30 -32 -20 -32 -20 -24 -77 4 -31 7 -70 6 -86 -2
-44 -34 -98 -71 -123 -64 -43 -132 -25 -208 52 -43 46 -75 53 -109 24 -30 -25
-32 -51 -8 -103 86 -185 -116 -326 -252 -175 -30 33 -61 41 -93 24 -41 -21
-44 -49 -14 -114 34 -73 36 -145 4 -190 -28 -40 -84 -64 -132 -57 -34 5 -101
36 -123 57 -28 26 -106 -15 -106 -57 0 -9 18 -43 40 -76 32 -48 40 -70 40
-105 0 -75 -47 -135 -118 -149 -34 -7 -94 10 -134 37 -35 25 -70 24 -96 -4
-30 -31 -28 -60 7 -99 90 -104 84 -221 -14 -267 -40 -19 -69 -21 -137 -7 -52
11 -82 1 -97 -30 -16 -36 -8 -56 47 -111 70 -71 82 -140 38 -208 -36 -55 -91
-70 -174 -47 -51 15 -53 14 -77 -8 -39 -36 -30 -72 27 -121 80 -67 104 -139
69 -206 -26 -51 -71 -76 -144 -79 -69 -3 -76 -8 -83 -56 -7 -39 -1 -47 72 -98
96 -66 102 -204 11 -261 -25 -16 -43 -19 -84 -15 -48 4 -55 2 -73 -21 -11 -14
-19 -36 -17 -48 3 -27 25 -55 41 -55 26 0 106 -61 132 -99 33 -50 37 -95 11
-142 -20 -37 -80 -79 -113 -79 -11 0 -31 -8 -45 -18 -19 -13 -25 -25 -24 -51
1 -39 21 -56 93 -81 53 -18 99 -70 112 -124 18 -81 -33 -154 -115 -164 -54 -6
-77 -31 -69 -77 6 -37 23 -51 75 -59 75 -12 139 -59 165 -121 29 -71 -7 -140
-97 -184 -43 -21 -55 -31 -57 -53 -5 -40 38 -80 81 -77 81 6 125 -14 180 -79
54 -67 28 -160 -58 -202 -68 -33 -79 -80 -28 -120 13 -10 34 -17 46 -14 133
26 257 -44 259 -145 0 -47 -15 -75 -72 -127 -22 -21 -40 -45 -40 -55 0 -9 14
-29 32 -44 24 -20 37 -25 57 -19 90 25 174 4 226 -58 49 -58 23 -143 -56 -184
-31 -15 -37 -41 -18 -75 16 -31 48 -38 99 -23 102 31 211 6 250 -58 33 -54 25
-93 -30 -153 -39 -43 -43 -61 -17 -90 32 -36 64 -37 121 -2 162 100 337 -61
221 -203 -26 -33 -26 -51 4 -80 31 -31 70 -33 101 -5 27 24 104 55 139 55 49
0 113 -34 135 -71 21 -36 24 -105 6 -139 -19 -35 -20 -61 -5 -91 17 -32 37
-45 82 -52 33 -5 89 21 99 48 9 24 74 56 126 62 140 17 258 -121 227 -266 -10
-43 6 -77 43 -92 47 -19 78 -2 118 64 44 73 96 107 163 107 58 0 94 -17 135
-64 38 -43 53 -93 42 -141 -7 -31 -5 -38 22 -60 18 -15 38 -23 51 -21 12 3 25
5 28 5 4 1 12 16 20 33 31 79 93 127 165 128 69 0 135 -71 140 -151 2 -41 8
-58 24 -71 45 -36 94 -17 110 42 11 42 58 103 93 121 54 29 126 18 171 -27 14
-14 32 -49 42 -77 30 -95 85 -124 134 -72 19 20 26 42 31 102 6 61 14 85 36
117 48 67 128 98 193 74 54 -20 111 -95 124 -162 12 -62 54 -85 111 -62 39 16
44 30 43 111 0 70 20 127 63 171 87 90 215 58 288 -70 26 -47 36 -56 59 -56
60 0 81 45 56 122 -30 95 43 208 134 208 43 0 67 -13 122 -65 44 -43 46 -43
77 -30 54 23 59 50 25 123 -21 44 -28 72 -25 98 12 113 141 158 246 88 23 -16
50 -32 60 -36 24 -10 63 9 76 38 9 21 7 31 -14 62 -36 54 -42 96 -19 138 43
81 141 101 229 49 57 -35 86 -34 114 1 22 29 18 49 -16 81 -51 49 -57 117 -13
166 48 55 131 70 227 42 59 -17 92 -8 113 30 16 29 6 45 -47 84 -67 48 -73
110 -19 174 39 46 87 60 180 52 75 -6 83 -5 101 14 29 33 27 46 -19 89 -23 22
-48 58 -55 80 -13 37 -12 44 10 89 35 70 82 94 177 91 82 -3 99 7 108 64 6 32
3 36 -27 51 -92 46 -121 113 -82 194 26 55 86 93 145 93 59 0 86 13 98 46 13
34 -3 69 -37 82 -76 30 -114 111 -85 183 23 56 110 109 183 109 34 0 62 32 62
72 0 34 -24 58 -57 58 -34 0 -86 38 -101 73 -39 94 25 192 145 222 49 12 65
34 61 87 -1 20 -41 43 -92 52 -45 8 -83 40 -102 85 -13 30 -13 42 -1 79 16 57
54 96 125 132 75 39 87 68 45 113 -20 21 -30 25 -63 20 -79 -10 -143 51 -143
137 0 59 25 98 94 150 46 33 56 46 56 70 0 44 -28 66 -85 68 -91 4 -161 72
-152 146 7 51 31 82 103 132 54 36 59 43 57 74 -2 47 -27 63 -83 54 -108 -17
-176 10 -207 83 -27 65 5 134 90 190 53 36 62 79 23 111 -22 17 -32 19 -68 10
-100 -23 -182 -2 -218 57 -38 62 -21 131 50 200 55 54 50 100 -13 124 -21 8
-35 5 -74 -15 -129 -67 -263 -10 -263 113 0 38 10 57 73 136 29 36 29 36 10
67 -25 42 -55 48 -128 22 -72 -26 -96 -27 -140 -6 -43 20 -62 50 -69 103 -4
34 2 54 30 106 34 66 35 88 5 112 -27 21 -59 14 -107 -22 -25 -19 -51 -35 -57
-36 -7 0 -20 -2 -30 -4 -35 -7 -87 16 -117 53 -38 46 -40 94 -5 162 32 62 31
83 -1 109 -31 24 -51 18 -118 -33 -26 -19 -62 -38 -81 -42 -103 -19 -181 100
-138 209 13 32 14 42 3 63 -15 28 -52 41 -80 28 -10 -5 -29 -24 -42 -43 -33
-49 -69 -73 -119 -78 -100 -10 -164 81 -138 195 11 51 0 79 -36 88 -38 9 -58
-3 -93 -56 -64 -97 -161 -114 -228 -38 -29 33 -44 77 -40 122 5 57 -2 73 -36
87 -25 10 -33 9 -56 -8 -14 -10 -30 -32 -35 -49 -25 -76 -89 -121 -157 -109
-77 13 -120 72 -120 163 0 59 -28 102 -66 102 -32 0 -53 -26 -84 -102 -31 -77
-78 -117 -137 -120 -76 -3 -142 64 -158 159 -9 59 -47 89 -96 76z m336 -467
c50 -4 97 -8 105 -11 8 -2 37 -7 65 -10 176 -20 376 -94 434 -161 32 -36 33
-56 7 -97 -25 -37 -137 -86 -236 -103 -14 -3 -32 -7 -40 -9 -8 -2 -40 -7 -70
-10 -30 -3 -73 -8 -95 -10 -60 -7 -323 -7 -380 0 -27 3 -70 8 -95 11 -25 2
-70 9 -100 14 -30 5 -69 12 -86 15 -60 10 -206 56 -253 79 -51 26 -111 87
-111 112 0 43 42 84 115 112 111 43 184 57 341 68 49 4 90 7 91 8 5 4 223 -2
308 -8z m-1247 -341 c355 -74 661 -341 791 -692 13 -34 28 -66 35 -71 6 -5 38
-12 71 -16 33 -3 110 -16 170 -27 61 -12 144 -22 185 -22 l75 -2 40 78 c235
457 752 706 1199 577 257 -74 456 -254 556 -504 17 -43 34 -88 36 -100 29
-129 33 -166 30 -286 -7 -275 -113 -528 -308 -736 -62 -65 -66 -67 -193 -89
-164 -28 -226 -63 -266 -150 -25 -55 -30 -87 -29 -182 0 -93 3 -120 32 -252
24 -112 34 -141 49 -141 9 0 81 50 99 70 17 18 123 92 142 99 59 21 272 -9
422 -60 313 -108 559 -348 663 -648 46 -134 51 -332 14 -475 -25 -94 -79 -209
-135 -286 -84 -116 -230 -235 -361 -295 -33 -15 -67 -31 -76 -35 -27 -14 -167
-51 -227 -61 -59 -10 -241 -12 -302 -4 -120 16 -265 57 -293 83 -11 9 -121
152 -245 317 -225 298 -250 331 -256 324 -60 -77 -158 -266 -194 -374 -32 -96
-42 -153 -47 -253 -1 -34 -8 -76 -15 -92 -11 -28 -9 -32 69 -124 78 -93 81
-98 82 -149 1 -77 -2 -166 -7 -190 -2 -12 -6 -39 -10 -62 -14 -103 -63 -256
-82 -263 -6 -2 -16 14 -21 35 -11 39 -76 350 -86 413 -3 19 -10 60 -15 90 -36
212 -40 347 -16 486 42 241 160 457 419 770 225 270 365 523 392 705 7 51 -7
72 -84 121 -140 88 -344 81 -629 -23 -48 -17 -105 -39 -127 -49 -101 -44 -316
-124 -403 -151 -123 -37 -173 -44 -297 -43 -147 1 -197 16 -452 142 -82 40
-185 83 -213 87 -74 12 -73 41 1 31 27 -4 99 -24 159 -46 117 -42 216 -70 265
-76 85 -10 102 -10 130 -1 16 6 37 17 45 24 69 63 105 107 133 163 28 58 32
74 31 148 0 98 -7 108 -84 116 -97 11 -133 17 -218 37 -76 18 -198 57 -247 79
-119 53 -392 135 -485 146 -60 7 -69 1 -105 -67 -14 -28 -47 -81 -72 -117 -57
-81 -188 -262 -203 -279 -5 -7 -10 -15 -10 -19 0 -4 -6 -15 -14 -23 -21 -24
-74 -132 -97 -198 -23 -67 -37 -134 -45 -218 -3 -33 -8 -62 -9 -63 -8 -8 27
-87 62 -140 49 -74 197 -222 348 -349 298 -249 396 -383 460 -628 25 -96 31
-126 40 -220 3 -33 8 -78 10 -100 6 -50 6 -276 0 -370 -4 -81 -16 -320 -21
-415 -1 -36 -3 -122 -4 -191 -1 -69 -6 -132 -11 -140 -20 -30 -149 147 -208
288 -27 63 -78 242 -80 283 0 8 -3 58 -7 110 -4 64 -1 127 10 195 28 180 31
190 78 232 109 101 134 122 141 123 14 0 7 36 -24 115 -30 79 -75 160 -193
345 -34 53 -72 117 -86 143 -14 26 -30 49 -37 51 -7 3 -40 -31 -75 -77 -34
-45 -65 -84 -68 -87 -3 -3 -19 -23 -35 -45 -16 -22 -49 -65 -72 -95 -24 -30
-46 -60 -51 -65 -4 -6 -34 -44 -66 -85 -33 -41 -60 -76 -61 -77 -4 -7 -157
-42 -210 -48 -55 -7 -223 -7 -270 -1 -21 3 -100 16 -125 21 -117 24 -290 104
-396 183 -172 128 -285 288 -345 487 -28 93 -35 291 -13 390 70 334 328 604
689 724 50 16 108 33 130 36 22 4 51 9 65 11 60 10 231 12 262 3 19 -5 61 -29
92 -54 32 -25 60 -45 61 -45 2 0 34 37 71 83 108 130 255 300 280 323 13 12
26 38 30 60 3 21 12 51 20 66 8 15 10 29 5 33 -9 5 -170 53 -201 60 -36 7
-278 77 -303 87 -74 29 -206 270 -256 469 -79 311 -18 633 164 869 123 159
301 272 496 315 86 18 258 18 347 0z m1159 -318 c83 -47 86 -145 6 -198 -102
-68 -234 59 -163 157 34 47 111 67 157 41z m-2480 -712 c53 -37 62 -188 22
-362 -6 -26 -12 -55 -14 -63 -8 -37 -61 -194 -96 -283 -45 -114 -103 -230
-168 -340 -25 -43 -50 -86 -56 -96 -13 -21 -83 -108 -111 -135 -194 -195 -284
-39 -190 329 85 333 259 689 422 862 88 94 145 120 191 88z m4895 -212 c48
-40 51 -43 87 -96 81 -119 169 -354 222 -594 81 -367 69 -676 -28 -726 -111
-58 -274 216 -379 638 -38 155 -59 279 -64 370 -12 248 3 347 63 413 27 29 58
28 99 -5z m-4655 -523 c41 -24 64 -60 65 -99 2 -82 -103 -143 -176 -102 -92
52 -89 155 5 203 44 23 66 23 106 -2z m4318 -224 c38 -16 75 -68 75 -105 0
-59 -70 -118 -134 -113 -115 9 -152 148 -57 209 39 24 73 27 116 9z m-4341
-2378 c99 -39 309 -164 401 -239 186 -153 339 -306 426 -428 73 -103 101 -160
107 -222 4 -41 1 -48 -23 -67 -50 -39 -143 -23 -290 49 -76 38 -278 168 -320
206 -11 10 -38 31 -60 48 -66 49 -298 285 -353 360 -60 81 -107 174 -117 227
-16 100 75 127 229 66z m753 12 c43 -26 67 -73 59 -115 -9 -46 -66 -95 -110
-95 -64 0 -136 58 -136 110 0 57 65 120 125 120 17 0 44 -9 62 -20z m2651
-100 c34 -21 62 -71 57 -99 -2 -9 -4 -21 -4 -27 -2 -19 -45 -63 -75 -74 -47
-17 -97 -4 -133 35 -92 98 38 236 155 165z m763 -109 c38 -1 79 -45 73 -79
-13 -73 -55 -141 -151 -243 -299 -318 -891 -634 -1058 -563 -39 16 -56 56 -43
103 29 103 155 240 399 436 90 72 327 211 454 267 91 41 256 88 284 83 9 -2
28 -4 42 -4z"/>
<path d="M3275 5372 c-95 -2 -112 -5 -132 -24 -12 -11 -21 -23 -21 -27 1 -3
-5 -22 -14 -41 -54 -124 -59 -461 -13 -815 9 -66 18 -128 21 -137 5 -17 69
-40 161 -58 27 -5 102 -20 167 -35 97 -20 122 -23 131 -13 23 25 73 274 100
498 3 25 8 61 11 80 2 19 7 55 9 79 2 24 7 62 10 85 10 77 14 111 21 165 3 30
7 61 9 70 2 9 6 42 10 73 6 51 5 57 -14 67 -12 7 -21 9 -21 7 0 -3 -12 -1 -27
5 -24 9 -115 17 -248 22 -27 1 -99 1 -160 -1z"/>
<path d="M2820 5283 c-40 -7 -91 -24 -155 -53 -33 -15 -86 -37 -118 -51 -83
-33 -108 -86 -107 -222 0 -70 2 -85 14 -164 14 -89 18 -133 20 -218 l3 -90 43
-7 c38 -7 121 -35 215 -73 100 -41 191 -56 246 -43 33 9 39 15 45 44 9 50 -2
220 -26 389 -12 85 -23 214 -24 297 -2 99 -6 151 -15 162 -10 11 -105 41 -114
35 -1 -1 -13 -4 -27 -6z"/>
<path d="M3833 5283 c-14 -10 -42 -114 -59 -223 -3 -19 -9 -60 -14 -90 -5 -30
-12 -75 -14 -100 -3 -25 -7 -72 -11 -105 -3 -33 -8 -71 -10 -85 -3 -14 -7 -61
-11 -105 -3 -44 -8 -88 -10 -99 -2 -10 -6 -49 -9 -86 -3 -38 -7 -81 -9 -97 -2
-15 -7 -57 -11 -93 -4 -36 -13 -99 -21 -140 -30 -157 -33 -143 31 -174 63 -31
212 -65 310 -69 75 -4 83 0 132 78 75 118 123 247 217 575 76 265 115 391 127
405 5 5 9 15 9 22 0 7 16 47 36 89 33 72 34 77 19 100 -58 89 -246 162 -480
188 -111 12 -211 16 -222 9z"/>
<path d="M4648 4969 c-15 -8 -118 -151 -118 -163 0 -4 -10 -23 -23 -44 -39
-63 -148 -338 -161 -407 -1 -5 -10 -37 -20 -70 -29 -97 -75 -307 -69 -321 12
-33 231 -27 393 11 63 14 122 28 130 30 62 14 67 21 103 132 52 157 77 243 83
283 3 19 9 54 13 77 14 71 5 193 -18 254 -25 67 -77 130 -134 164 -57 33 -161
64 -179 54z"/>
<path d="M3632 5947 c-70 -39 -63 -124 12 -143 38 -9 83 13 95 47 14 40 -2 74
-44 94 -39 18 -34 18 -63 2z"/>
<path d="M1366 4485 c-41 -38 -31 -92 22 -118 56 -29 132 21 118 78 -16 63
-91 85 -140 40z"/>
<path d="M5685 4249 c-14 -18 -24 -38 -21 -46 4 -8 6 -19 6 -23 0 -5 10 -18
22 -30 48 -44 138 -9 138 54 0 75 -95 104 -145 45z"/>
<path d="M2108 1910 c-28 -14 -33 -24 -36 -57 -3 -34 1 -44 24 -62 36 -28 79
-27 109 4 32 31 33 75 3 102 -33 29 -63 33 -100 13z"/>
<path d="M4771 1821 c-13 -3 -33 -19 -45 -34 -24 -33 -15 -69 26 -100 24 -18
32 -19 66 -9 102 31 56 171 -47 143z"/>
</g>
</svg>
